<svg xmlns="http://www.w3.org/2000/svg" xmlns:xlink="http://www.w3.org/1999/xlink" width="800" zoomAndPan="magnify" viewBox="0 0 600 299.999988" height="400" preserveAspectRatio="xMidYMid meet" version="1.0"><defs><g/><clipPath id="1382ceb93f"><path d="M 1.59375 20.175781 L 598.964844 20.175781 L 598.964844 178.980469 L 1.59375 178.980469 Z M 1.59375 20.175781 " clip-rule="nonzero"/></clipPath><clipPath id="fd28ec03d0"><path d="M 7.96875 20.175781 L 592.03125 20.175781 C 595.554688 20.175781 598.40625 23.03125 598.40625 26.550781 L 598.40625 172.605469 C 598.40625 176.125 595.554688 178.980469 592.03125 178.980469 L 7.96875 178.980469 C 4.445312 178.980469 1.59375 176.125 1.59375 172.605469 L 1.59375 26.550781 C 1.59375 23.03125 4.445312 20.175781 7.96875 20.175781 Z M 7.96875 20.175781 " clip-rule="nonzero"/></clipPath><clipPath id="123eaf648b"><path d="M 1.59375 121.019531 L 598.964844 121.019531 L 598.964844 279.824219 L 1.59375 279.824219 Z M 1.59375 121.019531 " clip-rule="nonzero"/></clipPath><clipPath id="8da9854570"><path d="M 7.96875 121.019531 L 592.03125 121.019531 C 595.554688 121.019531 598.40625 123.875 598.40625 127.394531 L 598.40625 273.449219 C 598.40625 276.96875 595.554688 279.824219 592.03125 279.824219 L 7.96875 279.824219 C 4.445312 279.824219 1.59375 276.96875 1.59375 273.449219 L 1.59375 127.394531 C 1.59375 123.875 4.445312 121.019531 7.96875 121.019531 Z M 7.96875 121.019531 " clip-rule="nonzero"/></clipPath></defs><g clip-path="url(#1382ceb93f)"><g clip-path="url(#fd28ec03d0)"><path fill="#745e59" d="M 1.59375 20.175781 L 598.34375 20.175781 L 598.34375 178.980469 L 1.59375 178.980469 Z M 1.59375 20.175781 " fill-opacity="1" fill-rule="nonzero"/></g></g><g clip-path="url(#123eaf648b)"><g clip-path="url(#8da9854570)"><path fill="#473c38" d="M 1.59375 121.019531 L 598.34375 121.019531 L 598.34375 279.824219 L 1.59375 279.824219 Z M 1.59375 121.019531 " fill-opacity="1" fill-rule="nonzero"/></g></g><g fill="#00bf63" fill-opacity="1"><g transform="translate(67.807259, 167.042225)"><g><path d="M 105.984375 -60.75 L 105.984375 -37.21875 C 103.179688 -24.332031 97.046875 -14.578125 87.578125 -7.953125 C 78.109375 -1.335938 67.546875 1.96875 55.890625 1.96875 C 41.242188 1.96875 28.769531 -3.507812 18.46875 -14.46875 C 8.175781 -25.425781 3.03125 -38.660156 3.03125 -54.171875 C 3.03125 -69.953125 8.066406 -83.273438 18.140625 -94.140625 C 28.222656 -105.015625 40.804688 -110.453125 55.890625 -110.453125 C 73.503906 -110.453125 87.441406 -104.273438 97.703125 -91.921875 L 81.53125 -74.171875 C 75.738281 -83.460938 67.671875 -88.109375 57.328125 -88.109375 C 49.703125 -88.109375 43.191406 -84.796875 37.796875 -78.171875 C 32.410156 -71.554688 29.71875 -63.554688 29.71875 -54.171875 C 29.71875 -44.972656 32.410156 -37.109375 37.796875 -30.578125 C 43.191406 -24.046875 49.703125 -20.78125 57.328125 -20.78125 C 63.640625 -20.78125 69.140625 -22.6875 73.828125 -26.5 C 78.523438 -30.3125 80.875 -35.375 80.875 -41.6875 L 55.890625 -41.6875 L 55.890625 -60.75 Z M 105.984375 -60.75 "/></g></g></g><g fill="#00bf63" fill-opacity="1"><g transform="translate(176.82476, 167.042225)"><g><path d="M 7.890625 -108.484375 L 46.6875 -108.484375 C 57.113281 -108.484375 65.613281 -105.695312 72.1875 -100.125 C 78.769531 -94.5625 82.0625 -86.609375 82.0625 -76.265625 C 82.0625 -68.285156 80.066406 -61.597656 76.078125 -56.203125 C 72.085938 -50.816406 66.671875 -47.03125 59.828125 -44.84375 L 97.171875 0 L 65.75 0 L 32.609375 -42.875 L 32.609375 0 L 7.890625 0 Z M 32.609375 -60.359375 L 35.5 -60.359375 C 37.78125 -60.359375 39.707031 -60.398438 41.28125 -60.484375 C 42.863281 -60.578125 44.660156 -60.882812 46.671875 -61.40625 C 48.691406 -61.9375 50.316406 -62.679688 51.546875 -63.640625 C 52.773438 -64.609375 53.828125 -66.007812 54.703125 -67.84375 C 55.578125 -69.6875 56.015625 -71.921875 56.015625 -74.546875 C 56.015625 -77.179688 55.578125 -79.421875 54.703125 -81.265625 C 53.828125 -83.109375 52.773438 -84.507812 51.546875 -85.46875 C 50.316406 -86.4375 48.691406 -87.179688 46.671875 -87.703125 C 44.660156 -88.234375 42.863281 -88.539062 41.28125 -88.625 C 39.707031 -88.71875 37.78125 -88.765625 35.5 -88.765625 L 32.609375 -88.765625 Z M 32.609375 -60.359375 "/></g></g></g><g fill="#00bf63" fill-opacity="1"><g transform="translate(270.982236, 167.042225)"><g><path d="M 69.953125 -108.484375 L 69.953125 -86.796875 L 32.609375 -86.796875 L 32.609375 -65.21875 L 68.375 -65.21875 L 68.375 -43.53125 L 32.609375 -43.53125 L 32.609375 -21.703125 L 69.953125 -21.703125 L 69.953125 0 L 7.890625 0 L 7.890625 -108.484375 Z M 69.953125 -108.484375 "/></g></g></g><g fill="#00bf63" fill-opacity="1"><g transform="translate(347.255054, 167.042225)"><g><path d="M 69.953125 -108.484375 L 69.953125 -86.796875 L 32.609375 -86.796875 L 32.609375 -65.21875 L 68.375 -65.21875 L 68.375 -43.53125 L 32.609375 -43.53125 L 32.609375 -21.703125 L 69.953125 -21.703125 L 69.953125 0 L 7.890625 0 L 7.890625 -108.484375 Z M 69.953125 -108.484375 "/></g></g></g><g fill="#00bf63" fill-opacity="1"><g transform="translate(423.527872, 167.042225)"><g><path d="M 32.609375 -67.328125 L 32.609375 0 L 7.890625 0 L 7.890625 -108.484375 L 32.609375 -108.484375 L 75.75 -41.15625 L 76 -41.15625 L 76 -108.484375 L 100.734375 -108.484375 L 100.734375 0 L 76 0 L 32.875 -67.328125 Z M 32.609375 -67.328125 "/></g></g></g><g fill="#7ed957" fill-opacity="1"><g transform="translate(100.940345, 237.468122)"><g><path d="M 42 -72.328125 L 71.1875 0 L 53.484375 0 L 48.125 -14.46875 L 20.609375 -14.46875 L 15.25 0 L -2.453125 0 L 26.734375 -72.328125 Z M 42.515625 -28.9375 L 34.453125 -49.96875 L 34.28125 -49.96875 L 26.21875 -28.9375 Z M 42.515625 -28.9375 "/></g></g></g><g fill="#7ed957" fill-opacity="1"><g transform="translate(169.666794, 237.468122)"><g><path d="M 70.65625 -40.5 L 70.65625 -24.8125 C 68.789062 -16.21875 64.703125 -9.710938 58.390625 -5.296875 C 52.078125 -0.890625 45.035156 1.3125 37.265625 1.3125 C 27.503906 1.3125 19.1875 -2.335938 12.3125 -9.640625 C 5.445312 -16.953125 2.015625 -25.78125 2.015625 -36.125 C 2.015625 -46.644531 5.375 -55.523438 12.09375 -62.765625 C 18.820312 -70.015625 27.210938 -73.640625 37.265625 -73.640625 C 49.003906 -73.640625 58.296875 -69.519531 65.140625 -61.28125 L 54.359375 -49.453125 C 50.492188 -55.640625 45.113281 -58.734375 38.21875 -58.734375 C 33.132812 -58.734375 28.796875 -56.523438 25.203125 -52.109375 C 21.609375 -47.703125 19.8125 -42.375 19.8125 -36.125 C 19.8125 -29.988281 21.609375 -24.742188 25.203125 -20.390625 C 28.796875 -16.035156 33.132812 -13.859375 38.21875 -13.859375 C 42.425781 -13.859375 46.09375 -15.128906 49.21875 -17.671875 C 52.351562 -20.210938 53.921875 -23.585938 53.921875 -27.796875 L 37.265625 -27.796875 L 37.265625 -40.5 Z M 70.65625 -40.5 "/></g></g></g><g fill="#7ed957" fill-opacity="1"><g transform="translate(242.33798, 237.468122)"><g><path d="M 46.640625 -72.328125 L 46.640625 -57.859375 L 21.75 -57.859375 L 21.75 -43.484375 L 45.59375 -43.484375 L 45.59375 -29.015625 L 21.75 -29.015625 L 21.75 -14.46875 L 46.640625 -14.46875 L 46.640625 0 L 5.265625 0 L 5.265625 -72.328125 Z M 46.640625 -72.328125 "/></g></g></g><g fill="#7ed957" fill-opacity="1"><g transform="translate(293.181525, 237.468122)"><g><path d="M 21.75 -44.890625 L 21.75 0 L 5.265625 0 L 5.265625 -72.328125 L 21.75 -72.328125 L 50.5 -27.4375 L 50.671875 -27.4375 L 50.671875 -72.328125 L 67.15625 -72.328125 L 67.15625 0 L 50.671875 0 L 21.921875 -44.890625 Z M 21.75 -44.890625 "/></g></g></g><g fill="#7ed957" fill-opacity="1"><g transform="translate(365.589744, 237.468122)"><g><path d="M 5.265625 -72.328125 L 26.21875 -72.328125 C 36.269531 -72.328125 44.859375 -68.890625 51.984375 -62.015625 C 59.117188 -55.148438 62.6875 -46.546875 62.6875 -36.203125 C 62.6875 -25.804688 59.132812 -17.171875 52.03125 -10.296875 C 44.925781 -3.429688 36.320312 0 26.21875 0 L 5.265625 0 Z M 21.75 -14.734375 L 24.28125 -14.734375 C 30.300781 -14.734375 35.222656 -16.765625 39.046875 -20.828125 C 42.878906 -24.890625 44.828125 -29.988281 44.890625 -36.125 C 44.890625 -42.257812 42.972656 -47.367188 39.140625 -51.453125 C 35.316406 -55.546875 30.363281 -57.59375 24.28125 -57.59375 L 21.75 -57.59375 Z M 21.75 -14.734375 "/></g></g></g><g fill="#7ed957" fill-opacity="1"><g transform="translate(430.283765, 237.468122)"><g><path d="M 42 -72.328125 L 71.1875 0 L 53.484375 0 L 48.125 -14.46875 L 20.609375 -14.46875 L 15.25 0 L -2.453125 0 L 26.734375 -72.328125 Z M 42.515625 -28.9375 L 34.453125 -49.96875 L 34.28125 -49.96875 L 26.21875 -28.9375 Z M 42.515625 -28.9375 "/></g></g></g></svg>